P2
40 40
255
207 
173 157 143 130 120 113 110 111 115 124 135 149 164 180 195 209 221 230 235 236 234 227 218 205 191 175 159 144 131 121 113 110 110 114 122 133 147 162 178 193 
151 135 120 108 97 91 88 88 93 101 113 127 142 158 173 187 199 208 213 214 212 205 196 183 168 153 137 122 109 99 91 88 88 92 100 111 125 140 156 171 
124 109 94 81 71 64 61 62 67 75 86 100 115 131 147 161 172 181 186 188 185 179 169 157 142 127 111 96 83 72 65 61 62 66 74 85 98 113 129 145 
99 83 68 55 45 38 35 36 41 49 61 74 90 105 121 135 147 155 161 162 159 153 143 131 116 101 85 70 57 46 39 35 36 40 48 59 72 88 103 119 
78 62 47 34 24 18 14 15 20 28 40 54 69 85 100 114 126 134 140 141 139 132 122 110 95 80 64 49 36 26 18 15 15 19 27 38 52 67 82 98 
66 50 35 22 12 5 2 3 8 16 28 41 57 73 88 102 114 122 128 129 126 120 110 98 83 68 52 37 24 13 6 3 3 7 15 26 40 55 70 86 
65 49 34 21 11 4 1 2 7 15 27 40 56 71 87 101 112 121 126 128 125 119 109 97 82 67 51 36 23 12 5 1 2 6 14 25 38 53 69 85 
74 59 44 31 21 14 11 12 17 25 37 50 66 81 97 111 122 131 136 138 135 129 119 107 92 77 61 46 33 22 15 11 12 16 24 35 48 63 79 95 
94 78 63 51 40 34 31 31 36 44 56 70 85 101 116 130 142 151 156 157 155 148 139 126 112 96 80 65 52 42 34 31 31 35 43 54 68 83 99 114 
119 103 89 76 66 59 56 57 61 70 81 95 110 126 141 155 167 176 181 182 180 173 164 151 137 121 105 90 77 67 60 56 56 61 68 79 93 108 124 139 
146 130 115 102 92 86 82 83 88 96 108 121 137 153 168 182 194 202 208 209 206 200 190 178 163 148 132 117 104 93 86 83 83 87 95 106 120 135 150 166 
169 153 139 126 116 109 106 107 111 120 131 145 160 176 191 205 217 226 231 232 230 223 214 201 187 171 155 140 127 117 110 106 106 110 118 129 143 158 174 189 
185 169 154 142 131 125 122 122 127 136 147 161 176 192 207 221 233 242 247 248 246 239 230 217 203 187 171 156 143 133 125 122 122 126 134 145 159 174 190 205 
190 175 160 147 137 130 127 128 133 141 152 166 181 197 213 227 238 247 252 254 251 245 235 223 208 193 177 162 149 138 131 127 128 132 140 151 164 179 195 211 
185 169 154 141 131 125 121 122 127 135 147 160 176 192 207 221 233 241 247 248 245 239 229 217 202 187 171 156 143 132 125 122 122 126 134 145 159 174 189 205 
169 153 138 125 115 109 105 106 111 119 131 144 160 176 191 205 217 225 231 232 229 223 213 201 186 171 155 140 127 117 109 106 106 110 118 129 143 158 173 189 
145 130 115 102 92 85 82 83 88 96 107 121 136 152 168 182 193 202 207 209 206 200 190 178 163 147 132 117 104 93 86 82 83 87 95 106 119 134 150 166 
119 103 88 75 65 58 55 56 61 69 81 94 110 125 141 155 167 175 181 182 179 173 163 151 136 121 105 90 77 66 59 56 56 60 68 79 93 108 123 139 
93 78 63 50 40 33 30 31 36 44 56 69 85 100 116 130 141 150 155 157 154 148 138 126 111 96 80 65 52 41 34 30 31 35 43 54 67 82 98 114 
74 59 44 31 21 14 11 12 17 25 36 50 65 81 97 111 122 131 136 138 135 129 119 106 92 76 61 46 33 22 15 11 12 16 24 35 48 63 79 95 
64 49 34 21 11 4 1 2 7 15 27 40 55 71 87 101 112 121 126 128 125 119 109 97 82 67 51 36 23 12 5 1 2 6 14 25 38 53 69 85 
66 50 35 23 12 6 3 3 8 16 28 42 57 73 88 102 114 122 128 129 127 120 110 98 83 68 52 37 24 14 6 3 3 7 15 26 40 55 71 86 
78 62 48 35 25 18 15 16 20 29 40 54 69 85 100 114 126 135 140 141 139 132 123 110 96 80 64 49 36 26 18 15 15 19 27 38 52 67 83 98 
99 83 68 56 46 39 36 37 41 50 61 75 90 106 121 135 147 156 161 162 160 153 144 131 117 101 85 70 57 47 39 36 36 40 48 59 73 88 104 119 
125 109 94 82 71 65 62 62 67 75 87 101 116 132 147 161 173 182 187 188 186 179 170 157 143 127 111 96 83 73 65 62 62 66 74 85 99 114 130 145 
151 135 121 108 98 91 88 89 93 102 113 127 142 158 173 187 199 208 213 215 212 206 196 183 169 153 138 123 109 99 92 88 88 93 101 112 125 140 156 171 
173 157 143 130 120 113 110 111 116 124 135 149 164 180 195 209 221 230 235 237 234 228 218 205 191 175 160 145 132 121 114 110 110 115 123 134 147 162 178 193 
187 171 157 144 134 127 124 125 129 138 149 163 178 194 209 223 235 244 249 250 248 241 232 219 205 189 173 158 145 135 128 124 124 128 136 147 161 176 192 207 
190 174 160 147 137 130 127 128 132 141 152 166 181 197 212 226 238 247 252 253 251 245 235 222 208 192 176 162 148 138 131 127 127 132 139 151 164 179 195 210 
182 166 152 139 129 122 119 120 124 133 144 158 173 189 204 218 230 239 244 245 243 236 227 214 200 184 168 153 140 130 123 119 119 124 131 142 156 171 187 202 
164 148 134 121 111 104 101 102 106 115 126 140 155 171 186 200 212 221 226 227 225 219 209 196 182 166 151 136 122 112 105 101 101 106 114 125 138 153 169 184 
140 124 109 96 86 79 76 77 82 90 102 115 131 147 162 176 188 196 202 203 200 194 184 172 157 142 126 111 98 87 80 77 77 81 89 100 114 129 144 160 
113 97 83 70 60 53 50 51 55 64 75 89 104 120 135 149 161 170 175 176 174 167 158 145 131 115 99 84 71 61 53 50 50 54 62 73 87 102 118 133 
89 73 58 45 35 29 25 26 31 39 51 64 80 96 111 125 137 145 151 152 149 143 133 121 106 91 75 60 47 36 29 26 26 30 38 49 63 78 93 109 
71 56 41 28 18 11 8 9 14 22 33 47 62 78 93 107 119 128 133 135 132 126 116 103 89 73 58 43 30 19 12 8 9 13 21 32 45 60 76 92 
64 48 33 21 10 4 1 1 6 14 26 40 55 71 86 100 112 121 126 127 125 118 108 96 81 66 50 35 22 12 4 1 1 5 13 24 38 53 69 84 
68 52 37 24 14 7 4 5 10 18 30 43 59 74 90 104 115 124 129 131 128 122 112 100 85 70 54 39 26 15 8 4 5 9 17 28 41 56 72 88 
82 66 51 39 29 22 19 19 24 33 44 58 73 89 104 118 130 139 144 145 143 136 127 114 100 84 68 53 40 30 22 19 19 23 31 42 56 71 87 102 
104 89 74 61 51 44 41 42 47 55 66 80 95 111 126 140 152 161 166 168 165 159 149 136 122 106 91 76 63 52 45 41 41 46 54 65 78 93 109 124 
131 115 100 87 77 70 67 68 73 81 93 106 122 138 153 167 179 187 193 194 191 185 175 163 148 133 117 102 89 78 71 68 68 72 80 91 105 120 135 